Coordinates
version=1
nRows=36
nColumns=21
inDegrees=no
endheader
time	ra_wr_s_p	ra_wr_e_f	ra_cmc1_ad_ab	ra_cmc1_f_e	ra_mcp1_f_e	ra_ip1_f_e	ra_mcp2_e_f	ra_pip2_e_f	ra_dip2_e_f	ra_mcp3_e_f	ra_pip3_e_f	ra_dip3_e_f	ra_mcp4_e_f	ra_pip4_e_f	ra_dip4_e_f	ra_mcp5_e_f	ra_pip5_e_f	ra_dip5_e_f	ra_el_e_f	ra_wr_ad_ab
0.250000	0.000000	0.087300	0.633637	0.239063	-0.215149	-0.430298	0.430298	0.573730	0.430298	0.430298	0.573730	0.430298	0.430298	0.573730	0.430298	0.430298	0.573730	0.430298	0.000000	0.085000
0.251000	0.000000	0.087300	0.635494	0.237205	-0.213477	-0.426954	0.426954	0.569271	0.426954	0.426954	0.569271	0.426954	0.426954	0.569271	0.426954	0.426954	0.569271	0.426954	0.000000	0.085000
0.252000	0.000000	0.087300	0.637352	0.235348	-0.211805	-0.423610	0.423610	0.564814	0.423610	0.423610	0.564814	0.423610	0.423610	0.564814	0.423610	0.423610	0.564814	0.423610	0.000000	0.085000
0.253000	0.000000	0.087300	0.639209	0.233491	-0.210134	-0.420268	0.420268	0.560358	0.420268	0.420268	0.560358	0.420268	0.420268	0.560358	0.420268	0.420268	0.560358	0.420268	0.000000	0.085000
0.254000	0.000000	0.087300	0.641064	0.231636	-0.208464	-0.416929	0.416929	0.555905	0.416929	0.416929	0.555905	0.416929	0.416929	0.555905	0.416929	0.416929	0.555905	0.416929	0.000000	0.085000
0.255000	0.000000	0.087300	0.642918	0.229782	-0.206796	-0.413591	0.413591	0.551455	0.413591	0.413591	0.551455	0.413591	0.413591	0.551455	0.413591	0.413591	0.551455	0.413591	0.000000	0.085000
0.256000	0.000000	0.087300	0.644771	0.227929	-0.205129	-0.410257	0.410257	0.547010	0.410257	0.410257	0.547010	0.410257	0.410257	0.547010	0.410257	0.410257	0.547010	0.410257	0.000000	0.085000
0.257000	0.000000	0.087300	0.646621	0.226079	-0.203463	-0.406927	0.406927	0.542569	0.406927	0.406927	0.542569	0.406927	0.406927	0.542569	0.406927	0.406927	0.542569	0.406927	0.000000	0.085000
0.258000	0.000000	0.087300	0.648469	0.224231	-0.201800	-0.403601	0.403601	0.538134	0.403601	0.403601	0.538134	0.403601	0.403601	0.538134	0.403601	0.403601	0.538134	0.403601	0.000000	0.085000
0.259000	0.000000	0.087300	0.650314	0.222386	-0.200140	-0.400280	0.400280	0.533706	0.400280	0.400280	0.533706	0.400280	0.400280	0.533706	0.400280	0.400280	0.533706	0.400280	0.000000	0.085000
0.260000	0.000000	0.087300	0.652156	0.220544	-0.198482	-0.396964	0.396964	0.529285	0.396964	0.396964	0.529285	0.396964	0.396964	0.529285	0.396964	0.396964	0.529285	0.396964	0.000000	0.085000
0.261000	0.000000	0.087300	0.653995	0.218705	-0.196827	-0.393654	0.393654	0.524872	0.393654	0.393654	0.524872	0.393654	0.393654	0.524872	0.393654	0.393654	0.524872	0.393654	0.000000	0.085000
0.262000	0.000000	0.087300	0.655830	0.216870	-0.195175	-0.390351	0.390351	0.520468	0.390351	0.390351	0.520468	0.390351	0.390351	0.520468	0.390351	0.390351	0.520468	0.390351	0.000000	0.085000
0.263000	0.000000	0.087300	0.657661	0.215039	-0.193527	-0.387055	0.387055	0.516073	0.387055	0.387055	0.516073	0.387055	0.387055	0.516073	0.387055	0.387055	0.516073	0.387055	0.000000	0.085000
0.264000	0.000000	0.087300	0.659488	0.213212	-0.191883	-0.383766	0.383766	0.511688	0.383766	0.383766	0.511688	0.383766	0.383766	0.511688	0.383766	0.383766	0.511688	0.383766	0.000000	0.085000
0.265000	0.000000	0.087300	0.661311	0.211389	-0.190243	-0.380486	0.380486	0.507314	0.380486	0.380486	0.507314	0.380486	0.380486	0.507314	0.380486	0.380486	0.507314	0.380486	0.000000	0.085000
0.266000	0.000000	0.087300	0.663129	0.209571	-0.188607	-0.377214	0.377214	0.502952	0.377214	0.377214	0.502952	0.377214	0.377214	0.502952	0.377214	0.377214	0.502952	0.377214	0.000000	0.085000
0.267000	0.000000	0.087300	0.664941	0.207759	-0.186976	-0.373952	0.373952	0.498602	0.373952	0.373952	0.498602	0.373952	0.373952	0.498602	0.373952	0.373952	0.498602	0.373952	0.000000	0.085000
0.268000	0.000000	0.087300	0.666748	0.205952	-0.185349	-0.370699	0.370699	0.494265	0.370699	0.370699	0.494265	0.370699	0.370699	0.494265	0.370699	0.370699	0.494265	0.370699	0.000000	0.085000
0.269000	0.000000	0.087300	0.668550	0.204150	-0.183728	-0.367456	0.367456	0.489942	0.367456	0.367456	0.489942	0.367456	0.367456	0.489942	0.367456	0.367456	0.489942	0.367456	0.000000	0.085000
0.270000	0.000000	0.087300	0.670345	0.202355	-0.182112	-0.364224	0.364224	0.485633	0.364224	0.364224	0.485633	0.364224	0.364224	0.485633	0.364224	0.364224	0.485633	0.364224	0.000000	0.085000
0.271000	0.000000	0.087300	0.672135	0.200565	-0.180502	-0.361004	0.361004	0.481338	0.361004	0.361004	0.481338	0.361004	0.361004	0.481338	0.361004	0.361004	0.481338	0.361004	0.000000	0.085000
0.272000	0.000000	0.087300	0.673917	0.198783	-0.178897	-0.357795	0.357795	0.477060	0.357795	0.357795	0.477060	0.357795	0.357795	0.477060	0.357795	0.357795	0.477060	0.357795	0.000000	0.085000
0.273000	0.000000	0.087300	0.675693	0.197007	-0.177299	-0.354598	0.354598	0.472798	0.354598	0.354598	0.472798	0.354598	0.354598	0.472798	0.354598	0.354598	0.472798	0.354598	0.000000	0.085000
0.274000	0.000000	0.087300	0.677462	0.195238	-0.175707	-0.351414	0.351414	0.468552	0.351414	0.351414	0.468552	0.351414	0.351414	0.468552	0.351414	0.351414	0.468552	0.351414	0.000000	0.085000
0.275000	0.000000	0.087300	0.679224	0.193476	-0.174122	-0.348243	0.348243	0.464324	0.348243	0.348243	0.464324	0.348243	0.348243	0.464324	0.348243	0.348243	0.464324	0.348243	0.000000	0.085000
0.276000	0.000000	0.087300	0.680978	0.191722	-0.172543	-0.345086	0.345086	0.460114	0.345086	0.345086	0.460114	0.345086	0.345086	0.460114	0.345086	0.345086	0.460114	0.345086	0.000000	0.085000
0.277000	0.000000	0.087300	0.682725	0.189975	-0.170971	-0.341942	0.341942	0.455923	0.341942	0.341942	0.455923	0.341942	0.341942	0.455923	0.341942	0.341942	0.455923	0.341942	0.000000	0.085000
0.278000	0.000000	0.087300	0.684463	0.188237	-0.169407	-0.338813	0.338813	0.451751	0.338813	0.338813	0.451751	0.338813	0.338813	0.451751	0.338813	0.338813	0.451751	0.338813	0.000000	0.085000
0.279000	0.000000	0.087300	0.686193	0.186507	-0.167850	-0.335699	0.335699	0.447599	0.335699	0.335699	0.447599	0.335699	0.335699	0.447599	0.335699	0.335699	0.447599	0.335699	0.000000	0.085000
0.280000	0.000000	0.087300	0.687915	0.184785	-0.166300	-0.332600	0.332600	0.443467	0.332600	0.332600	0.443467	0.332600	0.332600	0.443467	0.332600	0.332600	0.443467	0.332600	0.000000	0.085000
0.281000	0.000000	0.087300	0.689628	0.183072	-0.164758	-0.329517	0.329517	0.439356	0.329517	0.329517	0.439356	0.329517	0.329517	0.439356	0.329517	0.329517	0.439356	0.329517	0.000000	0.085000
0.282000	0.000000	0.087300	0.691332	0.181368	-0.163225	-0.326450	0.326450	0.435266	0.326450	0.326450	0.435266	0.326450	0.326450	0.435266	0.326450	0.326450	0.435266	0.326450	0.000000	0.085000
0.283000	0.000000	0.087300	0.693027	0.179673	-0.161699	-0.323399	0.323399	0.431198	0.323399	0.323399	0.431198	0.323399	0.323399	0.431198	0.323399	0.323399	0.431198	0.323399	0.000000	0.085000
0.284000	0.000000	0.087300	0.694713	0.177987	-0.160182	-0.320365	0.320365	0.427153	0.320365	0.320365	0.427153	0.320365	0.320365	0.427153	0.320365	0.320365	0.427153	0.320365	0.000000	0.085000
0.285000	0.000000	0.087300	0.696389	0.176311	-0.158674	-0.317348	0.317348	0.423130	0.317348	0.317348	0.423130	0.317348	0.317348	0.423130	0.317348	0.317348	0.423130	0.317348	0.000000	0.085000
